<?xml version="1.0" standalone="no"?>
<!DOCTYPE svg PUBLIC "-//W3C//DTD SVG 20010904//EN"
 "http://www.w3.org/TR/2001/REC-SVG-20010904/DTD/svg10.dtd">
<svg version="1.0" xmlns="http://www.w3.org/2000/svg"
 width="400.000000pt" height="400.000000pt" viewBox="0 0 400.000000 400.000000"
 preserveAspectRatio="xMidYMid meet">
<metadata>
Created by potrace 1.14, written by Peter Selinger 2001-2017
</metadata>
<g transform="translate(0.000000,400.000000) scale(0.100000,-0.100000)"
fill="#000000" stroke="none">
<path d="M1828 3995 c-1 -1 -28 -5 -58 -8 -30 -4 -93 -14 -140 -23 -47 -9 -96
-18 -110 -21 -14 -2 -81 -23 -149 -45 -235 -78 -493 -225 -676 -384 -49 -43
-97 -86 -105 -95 -9 -10 -40 -44 -70 -76 -30 -32 -66 -74 -80 -92 -14 -18 -35
-45 -46 -59 -52 -65 -131 -197 -190 -317 -89 -181 -153 -384 -180 -570 -3 -22
-8 -51 -11 -65 -3 -14 -6 -110 -8 -215 -4 -331 50 -586 185 -870 127 -268 263
-449 504 -670 97 -90 284 -211 438 -285 111 -53 295 -123 351 -134 12 -2 45
-9 72 -16 28 -6 68 -14 89 -16 22 -3 43 -7 46 -9 29 -18 401 -27 530 -13 36 4
103 14 150 23 47 10 96 19 109 21 49 10 220 68 310 107 327 140 635 388 833
670 32 45 61 87 65 92 19 25 59 99 113 210 97 197 157 402 187 640 12 95 8
412 -6 505 -63 401 -233 767 -491 1054 -174 194 -386 352 -622 466 -110 52
-293 122 -351 134 -12 3 -65 14 -117 25 -52 11 -117 23 -145 26 -52 7 -421 16
-427 10z m939 -1157 c18 -10 45 -35 60 -55 l28 -36 1 -726 c1 -407 -3 -739 -8
-758 -5 -18 -20 -46 -33 -62 -51 -59 -34 -58 -805 -59 -401 0 -721 4 -741 9
-50 12 -88 45 -109 91 -16 36 -17 97 -18 746 0 399 4 723 9 743 12 50 45 88
91 109 36 16 96 17 766 16 672 -1 729 -2 759 -18z"/>
<path d="M1485 2515 l-25 -24 0 -490 c0 -524 -2 -504 48 -530 9 -4 234 -8 499
-7 l481 1 26 24 26 24 0 489 0 489 -25 24 -24 25 -491 0 -491 0 -24 -25z"/>
</g>
</svg>
