<svg width="70" height="88" viewBox="0 0 44 44" fill="none" xmlns="http://www.w3.org/2000/svg">
                        <path
                            d="M22 0C9.84973 0 0 9.84973 0 22C0 34.1503 9.84973 44 22 44C34.1503 44 44 34.1503 44 22C44 9.84973 34.1503 0 22 0ZM14.3811 12.5711H29.6162C30.6416 12.6405 31.4153 13.3866 31.4289 14.3328V29.6189C31.3563 30.6844 30.5811 31.416 29.6162 31.429H14.3811C13.3163 31.3564 12.584 30.5829 12.5711 29.6189V14.3328C12.6298 13.3123 13.4793 12.5832 14.3811 12.5711ZM16.9458 16.0408C16.3991 16.0544 16.0465 16.4751 16.0408 16.9485V27.0032C16.0549 27.549 16.4737 27.9052 16.9458 27.9109H27.0515C27.5985 27.8967 27.9536 27.4763 27.9592 27.0032V16.9485C27.9458 16.4005 27.526 16.0464 27.0515 16.0408L16.9458 16.0408Z"
                            fill="#130F49" />
                    </svg>